<?xml version="1.0" encoding="UTF-8"?>
<svg width="800" height="600" viewBox="0 0 800 600" fill="none" xmlns="http://www.w3.org/2000/svg">
<rect width="800" height="600" fill="#4A5568"/>
<rect x="150" y="150" width="150" height="150" rx="5" fill="#E2E8F0"/>
<rect x="320" y="150" width="150" height="150" rx="5" fill="#E2E8F0"/>
<rect x="490" y="150" width="150" height="150" rx="5" fill="#E2E8F0"/>
<rect x="150" y="320" width="150" height="150" rx="5" fill="#E2E8F0"/>
<rect x="320" y="320" width="150" height="150" rx="5" fill="#E2E8F0"/>
<rect x="490" y="320" width="150" height="150" rx="5" fill="#E2E8F0"/>
<circle cx="225" cy="225" r="50" fill="#F687B3"/>
<polygon points="395,175 345,250 445,250" fill="#4FD1C5"/>
<rect x="520" y="180" width="90" height="90" fill="#FC8181"/>
<circle cx="225" cy="395" r="50" fill="#4FD1C5" fill-opacity="0.7"/>
<polygon points="395,345 345,420 445,420" fill="#F687B3" fill-opacity="0.7"/>
<rect x="520" y="350" width="90" height="90" fill="#B794F4" fill-opacity="0.7"/>
<text x="300" y="60" font-family="Arial" font-size="24" fill="white">NFT GALLERY</text>
<text x="260" y="520" font-family="Arial" font-size="18" fill="#CBD5E0">Showcase &amp; Trade Digital Art</text>
</svg>