<svg width="800" height="600" viewBox="0 0 800 600" fill="none" xmlns="http://www.w3.org/2000/svg">
<rect width="800" height="600" fill="#1A202C"/>
<rect x="150" y="150" width="500" height="300" rx="10" fill="#2D3748"/>
<rect x="180" y="200" width="440" height="60" rx="5" fill="#4A5568"/>
<rect x="180" y="280" width="200" height="40" rx="5" fill="#4A5568"/>
<rect x="180" y="340" width="200" height="40" rx="5" fill="#4A5568"/>
<circle cx="650" cy="170" r="15" fill="#F6AD55"/>
<circle cx="620" cy="170" r="15" fill="#68D391"/>
<circle cx="590" cy="170" r="15" fill="#FC8181"/>
<path d="M420 290 C460 290, 460 310, 500 310 C540 310, 540 330, 580 330" stroke="#4FD1C5" stroke-width="3"/>
<circle cx="420" cy="290" r="5" fill="#4FD1C5"/>
<circle cx="500" cy="310" r="5" fill="#4FD1C5"/>
<circle cx="580" cy="330" r="5" fill="#4FD1C5"/>
<text x="270" y="60" font-family="Arial" font-size="24" fill="white">PAYMENT PORTAL</text>
<text x="240" y="520" font-family="Arial" font-size="18" fill="#A0AEC0">Secure Institutional Transactions</text>
<text x="200" cy="230" font-family="Arial" font-size="18" fill="white">$1,250.00</text>
</svg>