<?xml version="1.0" encoding="UTF-8"?>
<svg width="800" height="600" viewBox="0 0 800 600" fill="none" xmlns="http://www.w3.org/2000/svg">
<rect width="800" height="600" fill="#322659"/>
<rect x="150" y="150" width="500" height="300" rx="5" fill="#44337A"/>
<rect x="180" y="180" width="440" height="40" rx="3" fill="#553C9A"/>
<rect x="180" y="230" width="200" height="30" rx="3" fill="#553C9A"/>
<rect x="180" y="270" width="300" height="30" rx="3" fill="#553C9A"/>
<rect x="180" y="310" width="250" height="30" rx="3" fill="#553C9A"/>
<rect x="180" y="350" width="350" height="30" rx="3" fill="#553C9A"/>
<text x="200" y="205" font-family="monospace" font-size="18" fill="#E9D8FD">contract TokenSwap {</text>
<text x="200" y="250" font-family="monospace" font-size="14" fill="#E9D8FD">  address owner;</text>
<text x="200" y="290" font-family="monospace" font-size="14" fill="#E9D8FD">  mapping(address => uint) balances;</text>
<text x="200" y="330" font-family="monospace" font-size="14" fill="#E9D8FD">  function swap() public {</text>
<text x="200" y="370" font-family="monospace" font-size="14" fill="#E9D8FD">    // Secure token swap logic</text>
<line x1="480" y1="250" x2="580" y2="250" stroke="#D6BCFA" stroke-width="2"/>
<line x1="500" y1="290" x2="580" y2="290" stroke="#D6BCFA" stroke-width="2"/>
<line x1="500" y1="330" x2="580" y2="330" stroke="#D6BCFA" stroke-width="2"/>
<line x1="550" y1="370" x2="580" y2="370" stroke="#D6BCFA" stroke-width="2"/>
<circle cx="600" cy="200" r="12" fill="#9F7AEA"/>
<circle cx="600" cy="240" r="12" fill="#F687B3"/>
<circle cx="600" cy="280" r="12" fill="#4FD1C5"/>
<circle cx="600" cy="320" r="12" fill="#F6AD55"/>
<circle cx="600" cy="360" r="12" fill="#4299E1"/>
<text x="150" y="60" font-family="Arial" font-size="28" font-weight="bold" fill="white">SMART CONTRACT WIZARD</text>
<text x="250" y="520" font-family="Arial" font-size="18" fill="#B794F4">Create and Deploy Secure Contracts</text>
</svg>