<svg width="32" height="32" viewBox="0 0 32 32" fill="none" xmlns="http://www.w3.org/2000/svg">
<rect width="32" height="32" rx="4" fill="white"/>
<path d="M9.52148 21.8135C9.54051 21.8233 9.55851 21.8329 9.57715 21.8398C9.55772 21.8329 9.53846 21.8238 9.51855 21.8135M9.52148 21.8135H9.51855M9.52148 21.8135H9.51855M9.52148 21.8135C9.51022 21.8077 9.49764 21.8038 9.48633 21.7969V21.7979C9.49675 21.8042 9.50821 21.8081 9.51855 21.8135M23.873 6.5C24.2786 6.5 24.6587 6.50363 24.9814 6.50684C24.9746 6.51442 24.9665 6.52106 24.96 6.5293C24.899 6.6059 24.8725 6.68596 24.8604 6.75195L24.8594 6.75391C24.796 6.84894 24.6802 7.00999 24.4814 7.27539C24.2838 7.53936 24.0105 7.8986 23.6377 8.38477L22.1973 10.2568C21.2725 11.4554 20.6008 12.3231 20.1494 12.9033C19.9238 13.1934 19.7538 13.4109 19.6348 13.5615C19.5752 13.6369 19.5285 13.6941 19.4951 13.7354L19.4482 13.793C19.3982 13.8466 19.353 13.9076 19.3174 13.9678C19.2996 13.9979 19.2787 14.0359 19.2617 14.0791C19.252 14.1038 19.2332 14.1563 19.2246 14.2246L19.2197 14.2988C19.2209 14.3958 19.2509 14.4693 19.2568 14.4844C19.2679 14.5124 19.2796 14.5357 19.2871 14.5498C19.3025 14.5787 19.3202 14.6058 19.334 14.627C19.3628 14.6712 19.3997 14.7238 19.4395 14.7773L19.7451 15.165L22.957 19.0889C23.3426 19.5615 23.6045 19.8815 23.8281 20.1533L24.4707 20.9287C24.5529 21.0273 24.6286 21.1227 24.6953 21.2061C24.6372 21.2679 24.5999 21.3368 24.5781 21.4062C24.561 21.4275 24.54 21.4554 24.5137 21.4834C24.5006 21.4973 24.4868 21.5084 24.4756 21.5195C24.4128 21.5404 24.3463 21.5751 24.2842 21.6357C24.221 21.6974 24.1834 21.7639 24.1611 21.8271C24.1521 21.8363 24.1434 21.848 24.1318 21.8594C24.0396 21.9501 23.9047 22.0707 23.7607 22.1914C23.6169 22.312 23.4737 22.4244 23.3662 22.501C23.349 22.5132 23.3326 22.5223 23.3193 22.5312C23.2652 22.5399 23.2017 22.559 23.1367 22.5986C23.0465 22.6538 22.9901 22.7215 22.9541 22.79C22.8979 22.8304 22.8202 22.8854 22.7207 22.9473C22.5968 23.0244 22.4514 23.1097 22.2988 23.1943L21.833 23.4385C20.7854 23.9504 19.7576 24.2689 18.6973 24.4121L18.2402 24.4629C17.8568 24.4963 17.2613 24.5064 16.7832 24.4971C16.5922 24.4934 16.4294 24.484 16.3115 24.4756C16.207 24.4118 16.1056 24.4043 16.0967 24.4033C16.0537 24.3987 16.0087 24.3996 15.9697 24.4023L15.8789 24.4121C15.8765 24.4122 15.8493 24.4139 15.7871 24.4092C15.7246 24.4045 15.6433 24.3947 15.5459 24.3789C15.3514 24.3473 15.1088 24.2955 14.8428 24.2285C14.4424 24.1276 14.0048 23.9962 13.6162 23.8574L13.2471 23.7168C12.4323 23.3841 11.4823 22.856 10.7939 22.3633L10.5166 22.1553C10.3509 22.0245 10.1955 21.8938 10.0684 21.7832C10.0717 21.7771 10.076 21.7718 10.0791 21.7656C10.099 21.7518 10.1202 21.7408 10.1377 21.7256L10.2207 21.6396C10.2337 21.6237 10.2513 21.6007 10.2686 21.5752C10.277 21.5626 10.2909 21.5407 10.3047 21.5137C10.3127 21.498 10.3381 21.4427 10.3516 21.3652C10.3602 21.3549 10.369 21.3445 10.3779 21.334C10.4187 21.2859 10.4577 21.2418 10.4883 21.209C10.5469 21.1753 10.5945 21.1349 10.6289 21.0938C10.6685 21.0463 10.6924 20.9959 10.7109 20.9492C10.7326 20.9176 10.7671 20.8706 10.8125 20.8096C10.9057 20.6844 11.0364 20.5148 11.1816 20.333C11.4794 19.9603 12.2592 18.9687 12.915 18.1289C13.571 17.289 14.7279 15.8068 15.4863 14.8359C16.2448 13.865 17.1791 12.6689 17.5615 12.1777L19.5703 9.59961L21.4248 7.21875C21.5716 7.0293 21.7158 6.84491 21.8301 6.70117C21.8872 6.62926 21.937 6.56862 21.9746 6.52246C21.9811 6.51443 21.9875 6.50692 21.9932 6.5H23.873ZM22.9385 23.2334C22.9352 23.2253 22.9334 23.2169 22.9307 23.209C22.9338 23.2173 22.9353 23.2259 22.9385 23.2334ZM17.5244 16.4883C17.3731 16.4883 17.2663 16.5586 17.2598 16.5625C17.2284 16.5815 17.2046 16.6003 17.1924 16.6104C17.1661 16.6319 17.1426 16.6543 17.127 16.6699C17.0937 16.7033 17.0563 16.7451 17.0186 16.7881L16.7432 17.1211L14.2744 20.2412C14.1459 20.4026 14.0284 20.5568 13.9424 20.6768C13.9001 20.7357 13.8607 20.7926 13.8311 20.8398C13.8172 20.862 13.7992 20.8925 13.7832 20.9248C13.7757 20.9399 13.7619 20.9693 13.75 21.0059C13.744 21.0243 13.7341 21.056 13.7285 21.0957C13.725 21.1212 13.7195 21.1722 13.7285 21.2363L13.7432 21.3047C13.7807 21.4361 13.8619 21.5169 13.8799 21.5352C13.9114 21.5672 13.9423 21.5924 13.9639 21.6084C14.0084 21.6415 14.0588 21.6715 14.1035 21.6973C14.1958 21.7504 14.3128 21.8099 14.4346 21.8672C14.6163 21.9526 14.8315 22.0443 15.0273 22.1162L15.2148 22.1807C15.6916 22.3309 16.0895 22.4089 16.5977 22.4482L17.1504 22.4756C18.0617 22.5008 18.8659 22.3943 19.6396 22.1357L19.9697 22.0156C20.2087 21.9214 20.47 21.7886 20.6738 21.668C20.7749 21.6082 20.8749 21.5442 20.9541 21.4824C20.9919 21.4529 21.0404 21.4122 21.084 21.3633C21.1056 21.339 21.1375 21.2994 21.166 21.2471C21.1847 21.2128 21.2176 21.145 21.2285 21.0537L21.2305 20.9551L21.2129 20.8525C21.2055 20.8262 21.1979 20.8081 21.1953 20.8018C21.1861 20.7789 21.177 20.7608 21.1719 20.751C21.1612 20.7308 21.1506 20.7136 21.1445 20.7041C21.1315 20.6836 21.1168 20.6622 21.1035 20.6436C21.0757 20.6045 21.0383 20.5535 20.9941 20.4951C20.9049 20.3772 20.7787 20.2154 20.6299 20.0254C20.3317 19.6447 19.935 19.1448 19.5371 18.6484C19.1393 18.1521 18.7391 17.6574 18.4346 17.2861C18.2826 17.1008 18.1528 16.9439 18.0586 16.833C18.0121 16.7783 17.971 16.7311 17.9395 16.6963C17.9246 16.6799 17.9067 16.6603 17.8887 16.6426C17.8808 16.6348 17.8641 16.6187 17.8428 16.6016C17.8329 16.5936 17.8103 16.5764 17.7803 16.5586C17.774 16.5548 17.7157 16.5167 17.626 16.498L17.5244 16.4883ZM9.70215 22.0537C9.68064 22.0587 9.65669 22.0635 9.62988 22.0654V22.0645C9.65429 22.0629 9.67809 22.0586 9.70215 22.0537ZM9.64746 21.8594C9.63873 21.8578 9.63 21.8557 9.62109 21.8535C9.62998 21.8559 9.63878 21.8575 9.64746 21.8594ZM24.5625 21.6709L24.5537 21.5938C24.5535 21.5864 24.5546 21.5792 24.5547 21.5723C24.5549 21.6068 24.5566 21.6401 24.5625 21.6709ZM10.1348 21.4814C10.1349 21.4844 10.1337 21.4873 10.1338 21.4902C10.132 21.4622 10.1309 21.4343 10.125 21.4072L10.1348 21.4814ZM25.1885 21.0488H25.1875C25.1593 21.0434 25.1284 21.0407 25.0957 21.04C25.1238 21.04 25.1552 21.0423 25.1885 21.0488ZM25.0488 21.042C25.0539 21.0415 25.0591 21.0404 25.0645 21.04C25.0592 21.0402 25.0541 21.0417 25.0488 21.042ZM10.7441 20.832C10.7431 20.8379 10.7423 20.8434 10.7412 20.8486C10.7423 20.843 10.7433 20.8375 10.7441 20.832ZM8.25098 6.5H10.2686L10.3096 6.54883L11.9229 8.54492C12.3165 9.03407 12.6792 9.48003 12.9463 9.80371C13.0793 9.96492 13.1901 10.0973 13.2695 10.1904C13.3088 10.2365 13.3437 10.2765 13.3701 10.3057C13.3825 10.3193 13.3976 10.3362 13.4131 10.3516C13.4198 10.3582 13.435 10.3728 13.4541 10.3887C13.4627 10.3958 13.483 10.4123 13.5107 10.4297C13.5247 10.4384 13.5503 10.4537 13.584 10.4678C13.6115 10.4792 13.6825 10.5068 13.7773 10.5068C13.9151 10.5068 14.0155 10.4522 14.0645 10.4209C14.1134 10.3896 14.1515 10.3555 14.1738 10.334C14.2201 10.2894 14.2737 10.2283 14.3359 10.1553L15.0625 9.26758C15.3019 8.97206 15.7164 8.47073 16.1182 7.98828L17.0986 6.82227C17.1425 6.77144 17.1835 6.72752 17.2139 6.69824C17.2981 6.65496 17.3571 6.59664 17.3926 6.55371C17.4167 6.55291 17.4425 6.55153 17.4697 6.55078C17.6701 6.54531 17.9357 6.54224 18.2041 6.54102C18.2945 6.5406 18.3848 6.54187 18.4727 6.54199L17.6689 7.57812C17.1459 8.25431 16.5099 9.07518 16.2549 9.40137C15.9987 9.72909 15.5254 10.3362 15.2031 10.751C14.8811 11.1655 14.505 11.6452 14.3682 11.8174L13.7861 12.5527C13.3614 13.0905 13.0128 13.5206 12.7666 13.8125C12.7574 13.8235 12.7472 13.8332 12.7383 13.8438L12.7256 13.8281L10.1807 10.6289L8.82812 8.92188L7.78418 7.60059C7.72313 7.52075 7.38471 7.08817 7.03418 6.64258C6.99713 6.59548 6.96296 6.54739 6.92773 6.50195C7.24372 6.50022 7.67181 6.5 8.25098 6.5ZM25.791 6.06348C25.799 6.06647 25.8074 6.06873 25.8154 6.07227C25.808 6.06881 25.7994 6.06693 25.791 6.06348Z" fill="black" stroke="black"/>
</svg>
