<svg width="36" height="36" viewBox="0 0 36 36" fill="none" xmlns="http://www.w3.org/2000/svg">
<path d="M8.45406 27.545C3.18198 22.2729 3.18198 13.7252 8.45406 8.45312M27.5459 8.45312C32.818 13.7252 32.818 22.2729 27.5459 27.545M12.6967 23.3024C9.76777 20.3734 9.76777 15.6247 12.6967 12.6958M23.3033 12.6958C26.2322 15.6247 26.2322 20.3734 23.3033 23.3024M19.5 17.9991C19.5 18.8275 18.8284 19.4991 18 19.4991C17.1716 19.4991 16.5 18.8275 16.5 17.9991C16.5 17.1706 17.1716 16.4991 18 16.4991C18.8284 16.4991 19.5 17.1706 19.5 17.9991Z" stroke="#666666" stroke-width="2.25" stroke-linecap="round" stroke-linejoin="round"/>
</svg>
