<svg width="128" height="122" viewBox="0 0 128 122" fill="none" xmlns="http://www.w3.org/2000/svg">
<path d="M70.5959 1.17167L71.0905 1.24472C71.0991 1.18696 71.1283 1.10251 71.1766 1.01983C71.1991 0.981355 71.2198 0.953211 71.2361 0.933689C71.2484 0.932079 71.2622 0.930371 71.2777 0.928585C71.3834 0.916445 71.5363 0.904149 71.7345 0.892171C72.1292 0.868325 72.6782 0.847211 73.334 0.829253C74.6442 0.793376 76.3645 0.770516 78.0941 0.762599C79.8237 0.754681 81.559 0.761721 82.899 0.785473C83.5696 0.797359 84.1377 0.813372 84.5554 0.83356C84.7648 0.843682 84.9314 0.854624 85.0521 0.866084C85.1056 0.871155 85.146 0.875963 85.175 0.880199C85.1276 0.978319 85.0425 1.12077 84.8997 1.32567C84.7206 1.58288 84.4717 1.90928 84.1397 2.3311L84.5326 2.64032L84.1397 2.33113C83.4615 3.19296 80.1666 7.4516 76.8192 11.7934C73.4709 16.1361 69.3922 21.4077 67.7557 23.508C66.118 25.6099 63.0914 29.5073 61.0298 32.1693C58.9685 34.831 56.5569 37.9238 55.6707 39.0421C54.7822 40.1634 53.1078 42.2842 51.9494 43.7555L52.3111 44.0403L51.9493 43.7555C49.223 47.2182 46.9722 50.0053 45.3695 51.9117C44.5674 52.8659 43.9321 53.5942 43.4826 54.075C43.321 54.2478 43.1878 54.384 43.0824 54.4852C42.9464 54.343 42.7696 54.1478 42.5615 53.9099C42.1153 53.3999 41.5387 52.7092 40.9407 51.9619C36.5413 46.4645 30.7111 39.1129 24.6358 31.4019C21.2144 27.0591 17.3227 22.1299 15.988 20.448L15.988 20.448C12.6545 16.248 10.0825 12.9808 9.2759 11.9229C8.89938 11.4289 6.74849 8.67457 4.49812 5.80452C3.37512 4.37228 2.35444 3.02192 1.6151 2.00105C1.24494 1.48994 0.948223 1.06544 0.74515 0.756274C0.720861 0.719295 0.698155 0.684335 0.677019 0.651394C0.960057 0.616867 1.41208 0.587581 2.12827 0.565412C4.02537 0.506688 7.6184 0.5 14.4037 0.5H28.5831L29.6551 1.78687C30.3232 2.58893 34.9821 8.37195 40.0117 14.6426C42.5262 17.7775 44.8388 20.6281 46.5391 22.6957C47.389 23.7291 48.0873 24.5685 48.5817 25.1502C48.8285 25.4406 49.027 25.6698 49.1693 25.8277C49.2396 25.9058 49.3009 25.9717 49.3494 26.0202C49.3726 26.0434 49.4008 26.0706 49.4299 26.0948C49.4435 26.1062 49.4681 26.126 49.4996 26.1457C49.5153 26.1556 49.5422 26.1714 49.5773 26.1861C49.6061 26.1981 49.6779 26.2257 49.7739 26.2257C49.9381 26.2257 50.0699 26.1613 50.1614 26.1027C50.2529 26.0441 50.3446 25.9649 50.4387 25.874C50.6285 25.6906 50.8971 25.3917 51.2956 24.922C52.0975 23.9769 53.4752 22.2804 55.9012 19.2763C58.9785 15.4656 66.5435 6.35167 68.9876 3.50991L68.9877 3.50984C69.3402 3.0998 69.6908 2.73067 69.9688 2.46774C70.1088 2.33527 70.2227 2.23701 70.3046 2.17513C70.3213 2.16253 70.3351 2.15264 70.3461 2.14504C70.5849 2.10318 70.756 1.94515 70.8536 1.81826C70.9775 1.65714 71.0597 1.45451 71.0906 1.24426L70.5959 1.17167ZM70.5959 1.17167C70.5568 1.43784 70.3894 1.65561 70.2237 1.65561C70.0583 1.65561 69.3313 2.34333 68.6086 3.18387L71.0033 0.475031M70.5959 1.17167C70.6352 0.905495 70.8182 0.592198 71.0033 0.475031M71.0033 0.475031L71.2707 0.897513L71.2708 0.897489L71.0033 0.475031ZM125.276 3.83128L125.448 3.55176C125.448 3.55171 125.448 3.55166 125.448 3.55161L125.275 3.83113M125.276 3.83128C125.275 3.83123 125.275 3.83118 125.275 3.83113M125.276 3.83128L125.274 3.83394M125.276 3.83128C125.28 3.83268 125.284 3.83416 125.289 3.83567C125.306 3.84071 125.362 3.85589 125.438 3.84969C125.434 3.86563 125.429 3.88191 125.423 3.8985C125.374 3.8855 125.324 3.86491 125.274 3.83394M125.275 3.83113L125.274 3.83372C125.274 3.83379 125.274 3.83387 125.274 3.83394M125.275 3.83113C125.262 3.82656 125.255 3.82296 125.255 3.82288C125.255 3.82282 125.261 3.82581 125.274 3.83394M0.480321 0.317438C0.474226 0.303536 0.47608 0.304947 0.480532 0.317915C0.48046 0.317754 0.48039 0.317594 0.480321 0.317438ZM70.3777 2.12477C70.3881 2.11904 70.3864 2.12117 70.3749 2.12632C70.376 2.1257 70.3769 2.12519 70.3777 2.12477ZM125.853 3.25817C125.854 3.25774 125.854 3.25731 125.855 3.25687C125.85 3.24841 125.848 3.24444 125.848 3.24445C125.848 3.24447 125.85 3.24907 125.853 3.25766C125.853 3.25782 125.853 3.25799 125.853 3.25817ZM124.35 5.34346C124.343 5.3289 124.335 5.31433 124.326 5.29979C124.317 5.28569 124.314 5.27909 124.314 5.27909C124.314 5.2791 124.318 5.28681 124.322 5.30108C124.322 5.30133 124.323 5.30158 124.323 5.30185C124.325 5.31033 124.331 5.32852 124.335 5.3543C124.34 5.35077 124.345 5.34715 124.35 5.34346ZM123.804 5.90434C123.808 5.89776 123.811 5.89128 123.814 5.88491C123.79 5.88165 123.772 5.87705 123.763 5.87441C123.752 5.87136 123.743 5.86827 123.736 5.86566C123.736 5.86563 123.736 5.86561 123.736 5.86559C123.729 5.86314 123.725 5.86113 123.723 5.86C123.725 5.86117 123.729 5.86343 123.735 5.86713L123.735 5.86723C123.758 5.88142 123.781 5.89373 123.804 5.90434ZM65.2107 121.302C65.06 121.287 64.9293 121.272 64.818 121.257C64.7732 121.083 64.6547 120.988 64.59 120.947C64.4764 120.877 64.3588 120.865 64.3294 120.862C64.1625 120.844 63.8898 120.87 63.5885 120.911C63.0403 120.986 62.0278 120.91 60.6639 120.688C59.3197 120.469 57.6889 120.118 55.936 119.675C52.4287 118.789 48.4617 117.542 45.3631 116.272C39.1982 113.747 31.8823 109.545 27.2318 105.862L26.9393 106.232L27.2318 105.862C25.8403 104.761 24.5405 103.663 23.592 102.806C23.1167 102.376 22.7356 102.012 22.4767 101.74C22.3656 101.624 22.2832 101.531 22.2272 101.461C22.2407 101.432 22.2595 101.395 22.2857 101.349C22.3628 101.214 22.4741 101.058 22.6003 100.908C22.7269 100.758 22.8568 100.628 22.9659 100.54C23.0182 100.498 23.0573 100.472 23.0821 100.458C23.2972 100.438 23.4948 100.332 23.6271 100.157C23.7675 99.9715 23.8111 99.7384 23.7648 99.5173C23.7651 99.5142 23.7655 99.4902 23.7822 99.4424C23.8038 99.3802 23.8422 99.3099 23.8894 99.249C23.9023 99.2324 23.9149 99.2177 23.9268 99.205C24.0221 99.2235 24.1097 99.2176 24.1755 99.2061C24.2899 99.1862 24.3913 99.1417 24.4722 99.0962C24.6355 99.0045 24.7913 98.8663 24.9193 98.7089L24.9193 98.7088C24.9828 98.6307 25.0392 98.5573 25.0827 98.4926C25.1042 98.4604 25.128 98.4225 25.1488 98.3817C25.1645 98.3509 25.2019 98.2747 25.214 98.1762C25.2204 98.1238 25.224 98.032 25.185 97.9279C25.1646 97.8734 25.135 97.8228 25.0978 97.7783C25.335 97.4647 25.6448 97.0813 25.9617 96.7062C26.2979 96.3083 26.6357 95.9272 26.8967 95.655C27.0059 95.5411 27.0956 95.4525 27.1629 95.3913C27.1719 95.3903 27.181 95.3891 27.1902 95.3877C27.3547 95.3619 27.4757 95.2718 27.5525 95.1796C27.6568 95.0543 27.6985 94.9075 27.7128 94.7827C27.7152 94.7785 27.7178 94.7741 27.7206 94.7693C27.7585 94.7048 27.8193 94.6102 27.9044 94.4849C28.0734 94.2361 28.3214 93.891 28.6316 93.473C29.2511 92.6381 30.1078 91.5269 31.0515 90.3419C32.946 87.9631 37.9305 81.6042 42.1286 76.2106C46.3265 70.8171 53.7328 61.3038 58.5871 55.0698C63.4414 48.8357 69.4148 41.1559 71.8614 38.0036C74.3075 34.8517 80.0961 27.4016 84.7244 21.4478C89.3531 15.4939 94.69 8.61625 96.5847 6.16402L96.189 5.85832L96.5847 6.16399C98.4866 3.70203 100.309 1.40372 100.644 1.03859L101.139 0.5H114.386C118.087 0.5 121.466 0.524315 123.928 0.563422C125.159 0.582984 126.159 0.606209 126.853 0.631829C127.021 0.638001 127.169 0.644272 127.298 0.650599C127.118 0.9555 126.852 1.33796 126.566 1.71144C126.274 2.09183 125.972 2.44692 125.731 2.68956C125.655 2.76588 125.591 2.82485 125.54 2.86792C125.494 2.85665 125.426 2.84593 125.347 2.85396C125.237 2.86513 125.085 2.91697 124.977 3.06285C124.878 3.1956 124.869 3.33448 124.873 3.408C124.876 3.48444 124.895 3.54749 124.909 3.5869C124.923 3.62803 124.941 3.66768 124.96 3.70462C124.951 3.73482 124.936 3.77704 124.912 3.83159C124.838 4.00094 124.707 4.21433 124.551 4.42114C124.393 4.62902 124.23 4.80266 124.101 4.90504C124.092 4.91235 124.084 4.91904 124.075 4.92515C124.061 4.92011 124.047 4.91544 124.032 4.91126C123.991 4.89988 123.673 4.81276 123.455 5.08777C123.355 5.21304 123.339 5.34738 123.34 5.42576C123.341 5.50472 123.358 5.56995 123.372 5.61096C123.374 5.61907 123.377 5.62711 123.38 5.63506C123.379 5.63763 123.377 5.64025 123.376 5.64294C123.308 5.78111 123.176 6.00337 122.949 6.34515C122.498 7.02354 121.715 8.11057 120.442 9.81666C117.898 13.2253 113.422 19.0715 105.797 28.9868C99.8781 36.6833 95.5793 42.2589 92.6869 45.9893C89.782 49.7359 88.3164 51.594 88.0424 51.8892C87.8521 52.0941 87.6797 52.3271 87.5523 52.5434C87.4887 52.6515 87.4315 52.7633 87.3891 52.8716C87.3507 52.9696 87.3069 53.1074 87.3086 53.254C87.3098 53.3622 87.3439 53.4512 87.3573 53.4853C87.376 53.533 87.3991 53.5799 87.4215 53.6221C87.4669 53.7073 87.5278 53.8071 87.5981 53.9151C87.7398 54.133 87.9397 54.4156 88.1804 54.741C88.6631 55.3933 89.3252 56.2376 90.0511 57.1183C92.2965 59.8426 103.481 73.5546 110.617 82.3319C115.55 88.399 117.304 90.5389 120.284 94.1226C121.142 95.1542 121.921 96.1226 122.483 96.8511C122.765 97.216 122.99 97.5168 123.143 97.7336C123.194 97.8066 123.235 97.8672 123.267 97.9157C123.244 97.9669 123.21 98.0304 123.166 98.1048C123.058 98.285 122.905 98.4959 122.737 98.6965C122.569 98.898 122.399 99.0738 122.262 99.1902C122.216 99.2287 122.18 99.2556 122.154 99.2735C121.983 99.2691 121.797 99.3193 121.647 99.4612C121.482 99.6173 121.426 99.8235 121.437 100.013C121.434 100.021 121.429 100.031 121.423 100.042C121.384 100.119 121.316 100.227 121.218 100.363C121.024 100.632 120.747 100.959 120.453 101.274C120.158 101.589 119.859 101.876 119.623 102.068C119.546 102.13 119.483 102.177 119.433 102.21C119.433 102.21 119.433 102.209 119.432 102.209C119.379 102.195 119.116 102.13 118.902 102.339C118.699 102.539 118.743 102.787 118.761 102.862C118.74 102.891 118.713 102.927 118.68 102.97C118.521 103.169 118.267 103.441 117.935 103.769C117.276 104.419 116.355 105.243 115.403 106.044C114.45 106.845 113.476 107.616 112.711 108.163C112.326 108.438 112.006 108.648 111.774 108.777C111.703 108.817 111.647 108.845 111.604 108.864C111.592 108.859 111.579 108.854 111.566 108.849C111.527 108.836 111.468 108.819 111.397 108.814C111.33 108.81 111.206 108.814 111.079 108.892C110.818 109.052 110.819 109.311 110.836 109.432C110.746 109.521 110.605 109.642 110.409 109.792C109.953 110.143 109.269 110.605 108.437 111.124C106.777 112.16 104.57 113.4 102.518 114.406C94.5777 118.3 86.7587 120.532 78.571 121.249C75.983 121.476 72.0691 121.539 68.9627 121.478C67.4087 121.448 66.0716 121.387 65.2107 121.302ZM23.0999 100.45C23.0996 100.45 23.0984 100.45 23.0964 100.451C23.0992 100.45 23.1003 100.45 23.0999 100.45ZM23.0331 100.462C23.0324 100.462 23.0317 100.462 23.031 100.462L23.0312 100.462C23.0319 100.462 23.0325 100.462 23.0331 100.462ZM26.7834 95.303C26.784 95.3034 26.7846 95.3038 26.7852 95.3041L26.7828 95.3027L26.7834 95.303ZM125.799 2.98283L125.799 2.98261L125.799 2.98283ZM124.971 3.65362C124.971 3.65359 124.971 3.65565 124.97 3.66012C124.97 3.65592 124.97 3.65365 124.971 3.65362ZM124.26 5.01602L123.997 5.44162L124.26 5.01612C124.26 5.01608 124.26 5.01605 124.26 5.01602ZM122.288 99.2883L122.288 99.2882L122.288 99.2883ZM52.1542 97.5276L52.6353 97.3913L52.1542 97.5276C52.1986 97.6842 52.3006 97.7954 52.3533 97.8492C52.4196 97.9168 52.4989 97.9818 52.5802 98.0424C52.7441 98.1644 52.9607 98.3009 53.2094 98.4446C53.7095 98.7338 54.3828 99.0771 55.1275 99.4283C56.6155 100.13 58.4287 100.881 59.7838 101.31L59.9346 100.833L59.7839 101.31C63.5627 102.505 66.4769 102.945 71.4351 103.084C77.7869 103.26 83.1891 102.384 88.4145 100.316C89.7934 99.7708 91.3403 98.9878 92.5406 98.2749C93.1397 97.919 93.6648 97.5733 94.0435 97.2769C94.2311 97.1301 94.3977 96.9838 94.5211 96.845C94.5825 96.7758 94.645 96.6954 94.6933 96.6065C94.7379 96.5242 94.7968 96.3869 94.7849 96.2191L94.7849 96.219C94.779 96.1356 94.7534 96.0717 94.746 96.0532C94.7346 96.0245 94.7222 95.9996 94.7127 95.9815C94.6934 95.9449 94.6704 95.9067 94.6478 95.871C94.6018 95.7982 94.5383 95.7054 94.4619 95.5974C94.308 95.3799 94.086 95.0795 93.8078 94.7105C93.2504 93.9713 92.4572 92.944 91.5073 91.7274C89.6068 89.2934 87.0733 86.0944 84.5304 82.9113C81.9876 79.7282 79.4342 76.5594 77.494 74.1858C76.5242 72.9994 75.7062 72.0098 75.1188 71.316C74.8256 70.9697 74.587 70.6937 74.4147 70.5028C74.3294 70.4083 74.2551 70.3289 74.1961 70.2708C74.1678 70.2429 74.1345 70.2114 74.1004 70.1839C74.0843 70.1708 74.0569 70.1497 74.0225 70.1292L74.0209 70.1283C74.0039 70.1179 73.8997 70.0546 73.7554 70.0546C73.5963 70.0546 73.4792 70.1295 73.4592 70.1416C73.4139 70.169 73.3733 70.2004 73.3416 70.2265C73.2764 70.2801 73.203 70.3498 73.1269 70.4264C72.9724 70.5818 72.7733 70.7997 72.5456 71.0605C72.0884 71.5838 71.4967 72.3014 70.8793 73.0879C66.9495 78.0945 58.0635 89.3585 55.0665 93.1324C54.2639 94.1431 53.5416 95.0971 53.0238 95.8212C52.7657 96.1822 52.5543 96.4918 52.4085 96.7252C52.3365 96.8404 52.2743 96.947 52.2299 97.0367C52.2083 97.0803 52.1843 97.1332 52.1663 97.1887C52.1573 97.2165 52.1461 97.2561 52.1396 97.3027C52.134 97.3431 52.1259 97.4279 52.1542 97.5276Z" fill="black" stroke="black"/>
</svg>
