<svg width="83" height="82" viewBox="0 0 83 82" fill="none" xmlns="http://www.w3.org/2000/svg">
<path d="M82.5 41C82.5 31.9745 79.5219 23.2012 74.0275 16.0408C68.5331 8.88037 60.8295 3.73301 52.1116 1.39704C43.3936 -0.938931 34.1485 -0.332972 25.81 3.12094C17.4715 6.57485 10.5057 12.6837 5.99296 20.5C1.48021 28.3163 -0.327304 37.4033 0.85076 46.3516C2.02882 55.2999 6.12663 63.6094 12.5086 69.9914C18.8906 76.3734 27.2001 80.4712 36.1484 81.6492C45.0967 82.8273 54.1837 81.0198 62 76.507L59.9603 72.9742C52.9217 77.038 44.7389 78.6656 36.6809 77.6048C28.6229 76.5439 21.1402 72.8539 15.3932 67.1068C9.64614 61.3598 5.95606 53.8771 4.89521 45.8191C3.83436 37.7611 5.46203 29.5783 9.52578 22.5397C13.5895 15.5011 19.8622 10 27.3711 6.88976C34.8799 3.7795 43.2052 3.23383 51.0558 5.33739C58.9063 7.44094 65.8434 12.0762 70.7911 18.5241C75.7388 24.9721 78.4207 32.8725 78.4207 41H82.5Z" fill="#666666"/>
</svg>
