<svg width="24" height="24" viewBox="0 0 24 24" fill="none" xmlns="http://www.w3.org/2000/svg">
<path d="M20.6476 2.67383L13.1523 8.24068L14.5384 4.95631L20.6476 2.67383Z" fill="#E2761B" stroke="#E2761B" stroke-width="0.0753296" stroke-linecap="round" stroke-linejoin="round"/>
<path d="M3.34565 2.67383L10.7807 8.29341L9.46241 4.95631L3.34565 2.67383ZM17.9521 15.5778L15.9558 18.6362L20.227 19.8113L21.4549 15.6456L17.9521 15.5778ZM2.55469 15.6456L3.77503 19.8113L8.04621 18.6362L6.04998 15.5778L2.55469 15.6456Z" fill="#E4761B" stroke="#E4761B" stroke-width="0.0753296" stroke-linecap="round" stroke-linejoin="round"/>
<path d="M7.80349 10.4105L6.61328 12.2109L10.8543 12.3992L10.7037 7.84179L7.80349 10.4105ZM16.1877 10.4105L13.2498 7.78906L13.1519 12.3992L17.3854 12.2109L16.1877 10.4105ZM8.04454 18.6365L10.5907 17.3936L8.39106 15.6761L8.04454 18.6365ZM13.4005 17.3936L15.9541 18.6365L15.6001 15.6761L13.4005 17.3936Z" fill="#E4761B" stroke="#E4761B" stroke-width="0.0753296" stroke-linecap="round" stroke-linejoin="round"/>
<path d="M15.9565 18.6365L13.4028 17.3936L13.6062 19.0583L13.5836 19.7589L15.9565 18.6365ZM8.04688 18.6365L10.4198 19.7589L10.4047 19.0583L10.593 17.3936L8.04688 18.6365Z" fill="#D7C1B3" stroke="#D7C1B3" stroke-width="0.0753296" stroke-linecap="round" stroke-linejoin="round"/>
<path d="M10.4563 14.5764L8.33203 13.9511L9.83109 13.2656L10.4563 14.5764ZM13.5373 14.5764L14.1625 13.2656L15.6691 13.9511L13.5373 14.5764Z" fill="#233447" stroke="#233447" stroke-width="0.0753296" stroke-linecap="round" stroke-linejoin="round"/>
<path d="M8.04701 18.6365L8.4086 15.5782L6.05078 15.646L8.04701 18.6365ZM15.595 15.5782L15.9566 18.6365L17.9529 15.646L15.595 15.5782ZM17.3879 12.2109L13.1544 12.3993L13.5461 14.5763L14.1713 13.2656L15.6779 13.951L17.3879 12.2109ZM8.33327 13.951L9.83986 13.2656L10.4576 14.5763L10.8568 12.3993L6.61575 12.2109L8.33327 13.951Z" fill="#CD6116" stroke="#CD6116" stroke-width="0.0753296" stroke-linecap="round" stroke-linejoin="round"/>
<path d="M6.61328 12.2109L8.39106 15.6761L8.33079 13.951L6.61328 12.2109ZM15.6754 13.951L15.6001 15.6761L17.3854 12.2109L15.6754 13.951ZM10.8543 12.3993L10.4551 14.5763L10.9523 17.145L11.0653 13.7627L10.8543 12.3993ZM13.1519 12.3993L12.9485 13.7552L13.0389 17.145L13.5436 14.5763L13.1519 12.3993Z" fill="#E4751F" stroke="#E4751F" stroke-width="0.0753296" stroke-linecap="round" stroke-linejoin="round"/>
<path d="M13.5448 14.5764L13.0401 17.1451L13.4017 17.3937L15.6013 15.6762L15.6767 13.9512L13.5448 14.5764ZM8.33203 13.9512L8.3923 15.6762L10.5919 17.3937L10.9535 17.1451L10.4563 14.5764L8.33203 13.9512Z" fill="#F6851B" stroke="#F6851B" stroke-width="0.0753296"/>
<path d="M13.5836 19.7591L13.6062 19.0586L13.4179 18.8928H10.5779L10.4047 19.0586L10.4198 19.7591L8.04688 18.6367L8.8755 19.3147L10.5553 20.4823H13.4405L15.1279 19.3147L15.9565 18.6367L13.5836 19.7591Z" fill="#C0AD9E" stroke="#C0AD9E" stroke-width="0.0753296" stroke-linecap="round" stroke-linejoin="round"/>
<path d="M13.4005 17.3931L13.0389 17.1445H10.9522L10.5907 17.3931L10.4023 19.0579L10.5756 18.8922H13.4155L13.6039 19.0579L13.4005 17.3931Z" fill="#161616" stroke="#161616" stroke-width="0.0753296" stroke-linecap="round" stroke-linejoin="round"/>
<path d="M20.9633 8.60226L21.6036 5.52882L20.6469 2.67383L13.4002 8.05236L16.1874 10.4102L20.1271 11.5627L21.0009 10.5458L20.6243 10.2746L21.2269 9.72468L20.7599 9.36309L21.3625 8.90358L20.9633 8.60226ZM2.39453 5.52882L3.03483 8.60226L2.62805 8.90358L3.23069 9.36309L2.77118 9.72468L3.37382 10.2746L2.99717 10.5458L3.86346 11.5627L7.80319 10.4102L10.5904 8.05236L3.34368 2.67383L2.39453 5.52882Z" fill="#763D16" stroke="#763D16" stroke-width="0.0753296" stroke-linecap="round" stroke-linejoin="round"/>
<path d="M20.1291 11.5634L16.1893 10.4109L17.3871 12.2113L15.6018 15.6764L17.9521 15.6463H21.4549L20.1291 11.5634ZM7.80516 10.4109L3.86542 11.5634L2.55469 15.6463H6.04998L8.39273 15.6764L6.61495 12.2113L7.80516 10.4109ZM13.1536 12.3996L13.4021 8.05308L14.5472 4.95703H9.46241L10.5924 8.05308L10.856 12.3996L10.9464 13.7706L10.9539 17.1454H13.0406L13.0556 13.7706L13.1536 12.3996Z" fill="#F6851B" stroke="#F6851B" stroke-width="0.0753296"/>
</svg>
